<svg width="19" height="22" viewBox="0 0 19 22" fill="none" xmlns="http://www.w3.org/2000/svg">
<g clip-path="url(#clip0_3_717)">
<mask id="path-1-inside-1_3_717" fill="white">
<path d="M14.0182 14.6408C16.4226 13.2754 18.2614 12.2352 18.4185 12.1539C18.9214 11.8776 19.44 11.1462 18.4185 10.5773C18.0885 10.3985 16.3126 9.39077 14.0182 8.09046L10.8594 11.3737L14.0182 14.6408Z"/>
</mask>
<path d="M14.0182 14.6408C16.4226 13.2754 18.2614 12.2352 18.4185 12.1539C18.9214 11.8776 19.44 11.1462 18.4185 10.5773C18.0885 10.3985 16.3126 9.39077 14.0182 8.09046L10.8594 11.3737L14.0182 14.6408Z" fill="white" stroke="#21252A" stroke-width="2" mask="url(#path-1-inside-1_3_717)"/>
<mask id="path-2-inside-2_3_717" fill="white">
<path d="M10.8594 11.3738L14.0182 8.09054C14.0182 8.09054 2.29445 1.47521 1.58725 1.08512C1.32009 0.92258 1.0215 0.873819 0.754333 0.92258L10.8594 11.3738Z"/>
</mask>
<path d="M10.8594 11.3738L14.0182 8.09054C14.0182 8.09054 2.29445 1.47521 1.58725 1.08512C1.32009 0.92258 1.0215 0.873819 0.754333 0.92258L10.8594 11.3738Z" fill="white" stroke="#21252A" stroke-width="2" mask="url(#path-2-inside-2_3_717)"/>
<mask id="path-3-inside-3_3_717" fill="white">
<path d="M10.8594 11.3737L0.754342 0.922501C0.34574 1.02002 0 1.39386 0 2.1578C0 3.37684 0 19.6307 0 20.6547C0 21.3536 0.267163 21.8575 0.770058 21.9062L10.8594 11.3737Z"/>
</mask>
<path d="M10.8594 11.3737L0.754342 0.922501C0.34574 1.02002 0 1.39386 0 2.1578C0 3.37684 0 19.6307 0 20.6547C0 21.3536 0.267163 21.8575 0.770058 21.9062L10.8594 11.3737Z" fill="white" stroke="#21252A" stroke-width="2" mask="url(#path-3-inside-3_3_717)"/>
<mask id="path-4-inside-4_3_717" fill="white">
<path d="M10.8594 11.3737L0.77005 21.89C1.00578 21.9225 1.27294 21.8575 1.58725 21.6787C2.2473 21.3049 9.2564 17.3389 14.0182 14.6408L10.8594 11.3737Z"/>
</mask>
<path d="M10.8594 11.3737L0.77005 21.89C1.00578 21.9225 1.27294 21.8575 1.58725 21.6787C2.2473 21.3049 9.2564 17.3389 14.0182 14.6408L10.8594 11.3737Z" fill="white" stroke="#21252A" stroke-width="2" mask="url(#path-4-inside-4_3_717)"/>
</g>
<defs>
<clipPath id="clip0_3_717">
<rect width="19" height="21" fill="white" transform="translate(0 0.90625)"/>
</clipPath>
</defs>
</svg>
