<svg width="18" height="23" fill="none" xmlns="http://www.w3.org/2000/svg"><path d="M15.034 12.11a5.025 5.025 0 012.394-4.218 5.148 5.148 0 00-4.055-2.193c-1.706-.179-3.36 1.021-4.23 1.021-.885 0-2.224-1.003-3.665-.973A5.4 5.4 0 00.933 8.518c-1.965 3.402-.5 8.402 1.383 11.151.942 1.348 2.042 2.852 3.483 2.798 1.409-.058 1.935-.898 3.636-.898 1.686 0 2.18.898 3.649.865 1.511-.025 2.464-1.354 3.374-2.713A11.145 11.145 0 0018 16.579a4.858 4.858 0 01-2.966-4.469zm-2.775-8.22A4.953 4.953 0 0013.39.345a5.04 5.04 0 00-3.259 1.686A4.715 4.715 0 008.97 5.445a4.164 4.164 0 003.289-1.554z" fill-rule="evenodd" clip-rule="evenodd" fill="#EFEDFD"/></svg>