<svg width="127" height="42" fill="none" xmlns="http://www.w3.org/2000/svg"><path d="M55.304 15.894c-1.842 0-3.372-.597-4.588-1.79-1.217-1.205-1.825-2.711-1.825-4.518 0-1.808.608-3.308 1.825-4.502 1.216-1.205 2.746-1.807 4.588-1.807s3.371.602 4.588 1.807c1.216 1.194 1.825 2.694 1.825 4.502 0 1.181-.278 2.259-.834 3.232a5.815 5.815 0 01-2.294 2.26c-.974.544-2.069.816-3.285.816zm-3.128-3.163c.834.834 1.877 1.252 3.128 1.252 1.263 0 2.305-.418 3.128-1.252.834-.846 1.251-1.894 1.251-3.145 0-1.252-.417-2.294-1.25-3.129-.824-.845-1.866-1.268-3.13-1.268-1.25 0-2.293.423-3.127 1.268-.835.835-1.252 1.877-1.252 3.129 0 1.25.417 2.3 1.252 3.145zm16.636-6.673c.927 0 1.761.214 2.503.643a4.443 4.443 0 011.738 1.755c.417.753.625 1.593.625 2.52 0 1.413-.463 2.59-1.39 3.528-.915.927-2.074 1.39-3.476 1.39-1.205 0-2.242-.376-3.11-1.13v4.276h-1.93V6.284h1.304l.365 1.147c.903-.916 2.027-1.373 3.371-1.373zm-2.346 7.125c.58.58 1.31.869 2.19.869.892 0 1.628-.29 2.207-.869.58-.59.869-1.327.869-2.207 0-.88-.29-1.61-.869-2.19-.58-.59-1.31-.886-2.19-.886a3.17 3.17 0 00-1.581.4 2.852 2.852 0 00-1.112 1.112 3.192 3.192 0 00-.383 1.564c0 .88.29 1.616.87 2.207zm18.204-2.19c0 .174-.012.388-.035.643h-7.612c.116.753.429 1.35.939 1.79.52.44 1.164.66 1.929.66.37 0 .718-.051 1.042-.156a2.88 2.88 0 00.852-.469 2.62 2.62 0 00.626-.747h2.033c-.37.996-.962 1.778-1.773 2.346-.81.556-1.738.834-2.78.834-1.38 0-2.532-.47-3.459-1.408-.915-.938-1.373-2.108-1.373-3.51 0-1.402.458-2.572 1.373-3.51.927-.94 2.08-1.408 3.459-1.408.938 0 1.772.226 2.502.677a4.476 4.476 0 011.686 1.79c.394.742.59 1.565.59 2.468zm-4.78-3.197c-.718 0-1.332.202-1.842.608-.498.405-.828.961-.99 1.668h5.683a3.116 3.116 0 00-.574-1.216 2.506 2.506 0 00-.99-.782 2.91 2.91 0 00-1.286-.278zm11.798-1.721c1.09 0 1.953.365 2.59 1.095.649.73.973 1.68.973 2.85v5.648h-1.929v-5.266c0-.845-.185-1.488-.556-1.929-.36-.452-.892-.677-1.599-.677-.73 0-1.332.266-1.807.799-.475.533-.713 1.217-.713 2.05v5.023h-1.929V6.284h1.338l.383 1.303a3.679 3.679 0 011.373-1.112 4.362 4.362 0 011.876-.4zM57.633 24.166v1.86h-3.58V36.33H52.07V26.026h-3.58v-1.86h9.142zm5.396 2.729h.834v1.825h-1.008c-1.598 0-2.398.869-2.398 2.606v5.005h-1.929v-9.384h1.303l.33 1.286c.673-.892 1.628-1.338 2.868-1.338zm9.94.052h1.494v9.384h-1.564l-.191-1.147c-.904.916-2.034 1.373-3.39 1.373-1.401 0-2.571-.469-3.51-1.407-.927-.939-1.39-2.109-1.39-3.51 0-1.414.463-2.584 1.39-3.511.939-.939 2.109-1.408 3.51-1.408 1.38 0 2.52.463 3.424 1.39l.226-1.164zm-5.718 6.9c.59.579 1.326.868 2.207.868.892 0 1.622-.29 2.19-.869.579-.59.868-1.326.868-2.207 0-.892-.29-1.628-.869-2.207-.567-.58-1.297-.869-2.19-.869-.578 0-1.106.133-1.58.4a2.886 2.886 0 00-1.096 1.112c-.266.464-.4.985-.4 1.564 0 .88.29 1.616.87 2.207zm14.933-7.109c1.09 0 1.952.365 2.59 1.095.648.73.973 1.68.973 2.85v5.648h-1.93v-5.265c0-.846-.184-1.49-.555-1.93-.36-.451-.892-.677-1.6-.677-.73 0-1.332.266-1.807.8-.475.532-.712 1.216-.712 2.05v5.022h-1.93v-9.384h1.339l.382 1.303c.36-.475.817-.845 1.373-1.112a4.361 4.361 0 011.877-.4zm9.308 9.82c-1.147 0-2.068-.29-2.763-.87-.695-.579-1.054-1.355-1.077-2.328h1.894c.023.475.214.846.573 1.112.371.255.852.382 1.443.382a2.8 2.8 0 00.921-.139 1.46 1.46 0 00.66-.417.97.97 0 00.244-.66.822.822 0 00-.122-.452 1.01 1.01 0 00-.295-.33 1.891 1.891 0 00-.504-.226c-.209-.07-.4-.122-.574-.157a15.428 15.428 0 00-.66-.121 19.43 19.43 0 01-.695-.122 12.118 12.118 0 01-.66-.156 5.108 5.108 0 01-.661-.244 6.814 6.814 0 01-.539-.347 1.802 1.802 0 01-.47-.47 3.16 3.16 0 01-.277-.625 3.163 3.163 0 01-.105-.834c0-.846.33-1.53.991-2.051.672-.521 1.553-.782 2.642-.782s1.963.272 2.624.817c.66.544.996 1.274 1.008 2.19h-1.825c-.011-.44-.18-.777-.504-1.008-.324-.244-.77-.365-1.338-.365-.533 0-.956.104-1.269.312-.313.209-.469.481-.469.817 0 .14.023.26.07.365a.728.728 0 00.225.278c.116.081.22.15.313.209.104.046.255.093.452.139.197.046.36.08.487.104.127.023.313.052.556.087.313.058.544.104.695.139.162.023.388.075.678.156.29.07.515.145.678.226.162.081.347.197.556.348.22.139.382.301.486.487.116.173.215.394.296.66.08.266.121.556.121.869 0 .915-.347 1.645-1.042 2.19-.695.544-1.617.816-2.764.816zm13.722-9.611h1.495v9.384h-1.564l-.191-1.147c-.904.916-2.034 1.373-3.389 1.373-1.402 0-2.572-.469-3.51-1.407-.928-.939-1.391-2.109-1.391-3.51 0-1.414.463-2.584 1.39-3.511.939-.939 2.109-1.408 3.511-1.408 1.379 0 2.52.463 3.424 1.39l.225-1.164zm-5.717 6.9c.591.579 1.326.868 2.207.868.892 0 1.622-.29 2.19-.869.579-.59.869-1.326.869-2.207 0-.892-.29-1.628-.869-2.207-.568-.58-1.298-.869-2.19-.869-.579 0-1.107.133-1.582.4a2.888 2.888 0 00-1.094 1.112 3.08 3.08 0 00-.4 1.564c0 .88.29 1.616.869 2.207zm14.186 2.71c-1.39 0-2.56-.469-3.511-1.407-.938-.95-1.407-2.12-1.407-3.51 0-1.403.469-2.573 1.407-3.511.951-.939 2.126-1.408 3.528-1.408 1.147 0 2.144.324 2.99.973.845.649 1.396 1.512 1.651 2.59h-1.912a2.804 2.804 0 00-1.095-1.252 2.988 2.988 0 00-1.651-.469c-.545 0-1.043.133-1.495.4a2.926 2.926 0 00-1.077 1.112 3.19 3.19 0 00-.382 1.564c0 .87.283 1.6.851 2.19.568.59 1.269.886 2.103.886.614 0 1.159-.156 1.634-.469.486-.313.857-.759 1.112-1.338h1.946c-.266 1.1-.828 1.987-1.685 2.659-.846.66-1.848.99-3.007.99zm10.759-1.98h1.06v1.755h-1.425c-.683 0-1.274-.134-1.772-.4a2.73 2.73 0 01-1.147-1.147c-.267-.51-.4-1.107-.4-1.79v-4.397h-1.686v-.365l3.267-3.476h.331v2.19h2.78v1.65h-2.763v4.241c0 .556.151.985.452 1.286.301.302.735.452 1.303.452z" fill="#fff"/><path d="M2.033 23.961l9.982-10.17a7.23 7.23 0 002.095-5.106 7.29 7.29 0 00-2.033-5.064l-9.982 10.17A7.229 7.229 0 000 18.897c0 1.988.78 3.767 2.033 5.064zm24.175-5.943l-9.982 10.17a7.229 7.229 0 00-2.095 5.106 7.29 7.29 0 002.033 5.064l9.982-10.17a7.229 7.229 0 002.095-5.106c0-1.988-.78-3.767-2.034-5.064zm-.062-4.206a7.229 7.229 0 002.095-5.106c0-1.967-.78-3.767-2.034-5.064L2.096 28.188A7.279 7.279 0 000 33.315a7.29 7.29 0 002.033 5.064l24.113-24.567z" fill="#29A073"/><path d="M26.208 18.018l-9.982 10.17a7.229 7.229 0 00-2.095 5.106 7.29 7.29 0 002.033 5.064l9.982-10.17a7.229 7.229 0 002.095-5.106c0-1.988-.78-3.767-2.033-5.064zM12.077 3.621l-9.982 10.17A7.229 7.229 0 000 18.897a7.29 7.29 0 002.033 5.064l9.982-10.17a7.23 7.23 0 002.095-5.106c0-1.988-.78-3.767-2.033-5.064z" fill="#fff"/></svg>