<svg width="127" height="42" viewBox="0 0 127 42" fill="none" xmlns="http://www.w3.org/2000/svg">
<path d="M55.3038 15.8941C53.4617 15.8941 51.9323 15.2975 50.7158 14.1041C49.4993 12.8992 48.891 11.393 48.891 9.58558C48.891 7.77817 49.4993 6.27779 50.7158 5.08443C51.9323 3.87949 53.4617 3.27702 55.3038 3.27702C57.146 3.27702 58.6754 3.87949 59.8919 5.08443C61.1084 6.27779 61.7167 7.77817 61.7167 9.58558C61.7167 10.7673 61.4386 11.8448 60.8825 12.8181C60.3379 13.7797 59.5733 14.5328 58.5885 15.0773C57.6152 15.6219 56.5204 15.8941 55.3038 15.8941ZM52.1756 12.7312C53.0098 13.5654 54.0526 13.9825 55.3038 13.9825C56.5667 13.9825 57.6095 13.5654 58.4321 12.7312C59.2662 11.8854 59.6833 10.8369 59.6833 9.58558C59.6833 8.3343 59.2662 7.29156 58.4321 6.45737C57.6095 5.6116 56.5667 5.18871 55.3038 5.18871C54.0526 5.18871 53.0098 5.6116 52.1756 6.45737C51.3414 7.29156 50.9244 8.3343 50.9244 9.58558C50.9244 10.8369 51.3414 11.8854 52.1756 12.7312ZM68.8123 6.05766C69.7392 6.05766 70.5734 6.272 71.3149 6.70068C72.0564 7.11777 72.6357 7.70286 73.0528 8.45595C73.4699 9.20904 73.6784 10.049 73.6784 10.9759C73.6784 12.3894 73.215 13.5654 72.2881 14.5038C71.3728 15.4307 70.2142 15.8941 68.8123 15.8941C67.6074 15.8941 66.5704 15.5176 65.7015 14.7645V19.0397H63.7724V6.28358H65.0758L65.4408 7.43059C66.3445 6.5153 67.4683 6.05766 68.8123 6.05766ZM66.4662 13.183C67.0455 13.7623 67.7754 14.052 68.6559 14.052C69.548 14.052 70.2837 13.7623 70.863 13.183C71.4423 12.5921 71.732 11.8564 71.732 10.9759C71.732 10.0954 71.4423 9.36545 70.863 8.78615C70.2837 8.19527 69.5538 7.89982 68.6733 7.89982C68.094 7.89982 67.5668 8.03306 67.0918 8.29954C66.6168 8.56602 66.246 8.93677 65.9795 9.41179C65.7247 9.87523 65.5972 10.3966 65.5972 10.9759C65.5972 11.8564 65.8869 12.5921 66.4662 13.183ZM84.6698 10.9933C84.6698 11.1671 84.6582 11.3814 84.635 11.6363H77.0231C77.1389 12.3894 77.4517 12.9861 77.9615 13.4263C78.4829 13.8666 79.1259 14.0867 79.8906 14.0867C80.2613 14.0867 80.6089 14.0346 80.9333 13.9303C81.2577 13.8145 81.5416 13.658 81.7849 13.4611C82.0398 13.2525 82.2483 13.0034 82.4105 12.7138H84.4439C84.0731 13.7102 83.4822 14.4922 82.6712 15.0599C81.8602 15.6161 80.9333 15.8941 79.8906 15.8941C78.5118 15.8941 77.359 15.4249 76.4322 14.4864C75.5169 13.548 75.0592 12.3778 75.0592 10.9759C75.0592 9.574 75.5169 8.40381 76.4322 7.46535C77.359 6.52689 78.5118 6.05766 79.8906 6.05766C80.829 6.05766 81.6632 6.28358 82.3931 6.73543C83.1231 7.1757 83.685 7.77238 84.0789 8.52547C84.4728 9.26697 84.6698 10.0896 84.6698 10.9933ZM79.8906 7.79555C79.1722 7.79555 78.5582 7.9983 78.0484 8.40381C77.5502 8.80932 77.22 9.36545 77.0578 10.0722H82.7407C82.6249 9.59717 82.4337 9.19166 82.1672 8.85567C81.9007 8.50809 81.5705 8.2474 81.1766 8.07361C80.7943 7.88824 80.3656 7.79555 79.8906 7.79555ZM91.6884 6.07503C92.7775 6.07503 93.6407 6.43999 94.2779 7.16991C94.9267 7.89982 95.2511 8.84987 95.2511 10.0201V15.6682H93.3221V10.4024C93.3221 9.55662 93.1367 8.9136 92.7659 8.47333C92.4068 8.02148 91.8738 7.79555 91.1671 7.79555C90.4372 7.79555 89.8347 8.06203 89.3597 8.59498C88.8846 9.12794 88.6471 9.81151 88.6471 10.6457V15.6682H86.7181V6.28358H88.0562L88.4386 7.587C88.7977 7.11198 89.2554 6.74123 89.8115 6.47475C90.3792 6.20827 91.0049 6.07503 91.6884 6.07503Z" fill="white"/>
<path d="M57.6325 24.1663V26.0258H54.0524V36.3315H52.0712V26.0258H48.4912V24.1663H57.6325ZM63.0292 26.8948H63.8634V28.7196H62.8554C61.2566 28.7196 60.4571 29.5885 60.4571 31.3264V36.3315H58.5281V26.9469H59.8315L60.1617 28.233C60.8337 27.3408 61.7895 26.8948 63.0292 26.8948ZM72.9683 26.9469H74.4629V36.3315H72.8988L72.7077 35.1845C71.8039 36.0998 70.6743 36.5575 69.3188 36.5575C67.9169 36.5575 66.7467 36.0882 65.8082 35.1498C64.8813 34.2113 64.4179 33.0411 64.4179 31.6392C64.4179 30.2257 64.8813 29.0556 65.8082 28.1287C66.7467 27.1902 67.9169 26.721 69.3188 26.721C70.6975 26.721 71.8387 27.1844 72.7424 28.1113L72.9683 26.9469ZM67.2507 33.8464C67.8415 34.4257 68.5773 34.7153 69.4578 34.7153C70.3499 34.7153 71.0798 34.4257 71.6475 33.8464C72.2268 33.2555 72.5165 32.5198 72.5165 31.6392C72.5165 30.7471 72.2268 30.0114 71.6475 29.4321C71.0798 28.8528 70.3499 28.5632 69.4578 28.5632C68.8785 28.5632 68.3513 28.6964 67.8763 28.9629C67.4129 29.2293 67.0479 29.6001 66.7814 30.0751C66.515 30.5386 66.3817 31.0599 66.3817 31.6392C66.3817 32.5198 66.6714 33.2555 67.2507 33.8464ZM82.1842 26.7384C83.2733 26.7384 84.1364 27.1033 84.7737 27.8332C85.4225 28.5632 85.7469 29.5132 85.7469 30.6834V36.3315H83.8178V31.0657C83.8178 30.2199 83.6325 29.5769 83.2617 29.1367C82.9025 28.6848 82.3696 28.4589 81.6628 28.4589C80.9329 28.4589 80.3305 28.7254 79.8554 29.2583C79.3804 29.7913 79.1429 30.4748 79.1429 31.309V36.3315H77.2138V26.9469H78.552L78.9343 28.2503C79.2935 27.7753 79.7512 27.4046 80.3073 27.1381C80.875 26.8716 81.5006 26.7384 82.1842 26.7384ZM91.4924 36.5575C90.3454 36.5575 89.4243 36.2678 88.7291 35.6885C88.034 35.1092 87.6748 34.333 87.6516 33.3597H89.546C89.5691 33.8348 89.7603 34.2055 90.1195 34.472C90.4902 34.7269 90.971 34.8543 91.5619 34.8543C91.9095 34.8543 92.2165 34.808 92.483 34.7153C92.7611 34.6226 92.9812 34.4836 93.1434 34.2982C93.3056 34.1128 93.3867 33.8927 93.3867 33.6378C93.3867 33.464 93.3462 33.3134 93.265 33.186C93.1839 33.0469 93.0855 32.9369 92.9696 32.8558C92.8537 32.7747 92.6858 32.6993 92.4656 32.6298C92.2571 32.5603 92.0659 32.5082 91.8921 32.4734C91.7299 32.4387 91.5098 32.3981 91.2317 32.3518C90.9421 32.3054 90.7103 32.2649 90.5366 32.2301C90.3628 32.1954 90.1426 32.1432 89.8762 32.0737C89.6097 31.9926 89.3895 31.9115 89.2158 31.8304C89.0536 31.7377 88.874 31.6218 88.677 31.4828C88.48 31.3438 88.3236 31.1874 88.2078 31.0136C88.1035 30.8398 88.0108 30.6312 87.9297 30.3879C87.8602 30.1331 87.8254 29.855 87.8254 29.5538C87.8254 28.708 88.1556 28.0244 88.816 27.503C89.488 26.9817 90.3686 26.721 91.4576 26.721C92.5467 26.721 93.4215 26.9933 94.0819 27.5378C94.7423 28.0823 95.0783 28.8123 95.0898 29.7275H93.265C93.2535 29.2873 93.0855 28.9513 92.7611 28.7196C92.4367 28.4763 91.9906 28.3546 91.4229 28.3546C90.8899 28.3546 90.467 28.4589 90.1542 28.6674C89.8414 28.876 89.685 29.1482 89.685 29.4842C89.685 29.6233 89.7082 29.7449 89.7545 29.8492C89.8008 29.9535 89.8762 30.0462 89.9804 30.1273C90.0963 30.2084 90.2006 30.2779 90.2932 30.3358C90.3975 30.3821 90.5481 30.4285 90.7451 30.4748C90.9421 30.5212 91.1043 30.5559 91.2317 30.5791C91.3592 30.6023 91.5445 30.6312 91.7878 30.666C92.1007 30.7239 92.3324 30.7703 92.483 30.805C92.6452 30.8282 92.8711 30.8803 93.1608 30.9614C93.4504 31.031 93.6764 31.1063 93.8386 31.1874C94.0008 31.2685 94.1861 31.3843 94.3947 31.535C94.6148 31.674 94.777 31.8362 94.8813 32.0216C94.9972 32.1954 95.0956 32.4155 95.1767 32.682C95.2578 32.9484 95.2984 33.2381 95.2984 33.5509C95.2984 34.4662 94.9508 35.1961 94.2556 35.7407C93.5605 36.2852 92.6394 36.5575 91.4924 36.5575ZM105.214 26.9469H106.709V36.3315H105.145L104.954 35.1845C104.05 36.0998 102.92 36.5575 101.565 36.5575C100.163 36.5575 98.9928 36.0882 98.0543 35.1498C97.1274 34.2113 96.664 33.0411 96.664 31.6392C96.664 30.2257 97.1274 29.0556 98.0543 28.1287C98.9928 27.1902 100.163 26.721 101.565 26.721C102.944 26.721 104.085 27.1844 104.989 28.1113L105.214 26.9469ZM99.4968 33.8464C100.088 34.4257 100.823 34.7153 101.704 34.7153C102.596 34.7153 103.326 34.4257 103.894 33.8464C104.473 33.2555 104.763 32.5198 104.763 31.6392C104.763 30.7471 104.473 30.0114 103.894 29.4321C103.326 28.8528 102.596 28.5632 101.704 28.5632C101.125 28.5632 100.597 28.6964 100.122 28.9629C99.659 29.2293 99.294 29.6001 99.0275 30.0751C98.761 30.5386 98.6278 31.0599 98.6278 31.6392C98.6278 32.5198 98.9175 33.2555 99.4968 33.8464ZM113.683 36.5575C112.293 36.5575 111.123 36.0882 110.172 35.1498C109.234 34.1997 108.765 33.0295 108.765 31.6392C108.765 30.2373 109.234 29.0671 110.172 28.1287C111.123 27.1902 112.298 26.721 113.7 26.721C114.847 26.721 115.844 27.0454 116.69 27.6942C117.535 28.343 118.086 29.2062 118.341 30.2837H116.429C116.186 29.7507 115.821 29.3336 115.334 29.0324C114.847 28.7196 114.297 28.5632 113.683 28.5632C113.138 28.5632 112.64 28.6964 112.188 28.9629C111.737 29.2293 111.377 29.6001 111.111 30.0751C110.856 30.5386 110.729 31.0599 110.729 31.6392C110.729 32.5082 111.012 33.2381 111.58 33.829C112.148 34.4199 112.849 34.7153 113.683 34.7153C114.297 34.7153 114.842 34.5589 115.317 34.2461C115.803 33.9332 116.174 33.4872 116.429 32.9079H118.375C118.109 34.0086 117.547 34.8949 116.69 35.5669C115.844 36.2273 114.842 36.5575 113.683 36.5575ZM124.442 34.5763H125.502V36.3315H124.077C123.394 36.3315 122.803 36.1983 122.305 35.9318C121.806 35.6653 121.424 35.283 121.158 34.7848C120.891 34.275 120.758 33.6784 120.758 32.9948V28.5979H119.072V28.233L122.339 24.7572H122.67V26.9469H125.45V28.5979H122.687V32.8384C122.687 33.3945 122.838 33.8232 123.139 34.1244C123.44 34.4257 123.874 34.5763 124.442 34.5763Z" fill="white"/>
<path d="M2.03334 23.9611L12.0152 13.7911C13.3091 12.4937 14.1101 10.6731 14.1101 8.68516C14.1101 6.71812 13.3297 4.9185 12.0768 3.62109L2.09495 13.7911C0.801011 15.0885 0 16.909 0 18.897C0 20.8849 0.780473 22.6636 2.03334 23.9611ZM26.2075 18.0181L16.2256 28.1881C14.9317 29.4855 14.1307 31.306 14.1307 33.294C14.1307 35.261 14.9111 37.0607 16.164 38.3581L26.1458 28.1881C27.4398 26.8907 28.2408 25.0701 28.2408 23.0822C28.2408 21.0942 27.4603 19.3155 26.2075 18.0181ZM26.1458 13.812C27.4398 12.5146 28.2408 10.694 28.2408 8.70608C28.2408 6.73905 27.4603 4.93942 26.2075 3.64202L2.09495 28.1881C0.801011 29.5064 0 31.306 0 33.3149C0 35.282 0.780473 37.0816 2.03334 38.379L26.1458 13.812Z" fill="#29A073"/>
<path d="M26.2076 18.0181L16.2258 28.188C14.9318 29.4854 14.1308 31.306 14.1308 33.294C14.1308 35.261 14.9113 37.0606 16.1641 38.358L26.146 28.188C27.4399 26.8906 28.2409 25.0701 28.2409 23.0821C28.2409 21.0942 27.4605 19.3155 26.2076 18.0181Z" fill="white"/>
<path d="M12.0768 3.62109L2.09495 13.7911C0.801011 15.0885 0 16.909 0 18.897C0 20.864 0.780471 22.6636 2.03334 23.9611L12.0152 13.7911C13.3091 12.4937 14.1101 10.6731 14.1101 8.68516C14.1101 6.6972 13.3297 4.9185 12.0768 3.62109Z" fill="white"/>
</svg>
