<svg width="19" height="22" viewBox="0 0 19 22" fill="none" xmlns="http://www.w3.org/2000/svg">
<g id="Google_Play_Arrow_logo 1" clip-path="url(#clip0_3_717)">
<path id="path16" d="M18.1814 11.7137C17.982 11.819 16.3082 12.7658 14.1083 14.0146L11.554 11.3729L14.1094 8.71686C14.2842 8.81596 14.4557 8.91315 14.6233 9.00816C16.488 10.065 17.8789 10.8534 18.1776 11.0154C18.3796 11.1283 18.4577 11.2231 18.4858 11.2725C18.5083 11.3119 18.5088 11.3371 18.5023 11.3657C18.4934 11.4055 18.4647 11.4668 18.4006 11.5389C18.3386 11.6086 18.2593 11.6703 18.1814 11.7137Z" fill="white" stroke="#21252A"/>
<path id="path23" d="M13.2099 14.5241L13.5688 14.8954C9.9444 16.9488 5.23313 19.6152 2.92913 20.9192C2.3954 21.2213 1.99085 21.4502 1.75892 21.5815L2.96507 20.3243M13.2099 14.5241C13.3615 14.4381 13.5114 14.3532 13.6592 14.2695L11.2072 11.7335L10.8608 12.0945M13.2099 14.5241C9.74401 16.4876 5.32936 18.9862 2.96507 20.3243M13.2099 14.5241L10.8608 12.0945M10.8608 12.0945L10.513 11.7348L1.44884 21.1825C1.66616 21.0594 2.0978 20.8152 2.68583 20.4824C2.77536 20.4317 2.8685 20.379 2.96507 20.3243M10.8608 12.0945L2.96507 20.3243" fill="white" stroke="#21252A"/>
<path id="path30" d="M2.84308 2.36356C4.10403 3.07331 5.97858 4.12996 7.82233 5.16964C9.33196 6.02092 10.8195 6.86001 11.9296 7.48628L13.2105 8.2089L10.8585 10.6536L2.84308 2.36356Z" fill="white" stroke="#21252A"/>
<path id="path37" d="M0.636707 1.57243C0.643822 1.56202 0.651139 1.55217 0.658647 1.54285L10.1655 11.3754L0.651334 21.3074C0.643171 21.2961 0.63504 21.2837 0.626914 21.2699C0.557465 21.1524 0.5 20.9488 0.5 20.6547V20.6485V20.642V20.6351V20.6279V20.6204V20.6125V20.6042V20.5957V20.5868V20.5775V20.5679V20.558V20.5477V20.5372V20.5262V20.515V20.5034V20.4915V20.4793V20.4668V20.4539V20.4407V20.4272V20.4134V20.3993V20.3848V20.3701V20.355V20.3396V20.3239V20.3079V20.2916V20.275V20.2581V20.2409V20.2233V20.2055V20.1874V20.169V20.1503V20.1313V20.112V20.0924V20.0725V20.0523V20.0319V20.0111V19.9901V19.9688V19.9472V19.9253V19.9031V19.8807V19.858V19.835V19.8117V19.7882V19.7644V19.7403V19.716V19.6913V19.6665V19.6413V19.6159V19.5902V19.5643V19.5381V19.5117V19.485V19.458V19.4308V19.4033V19.3756V19.3477V19.3194V19.291V19.2623V19.2333V19.2041V19.1747V19.145V19.1151V19.0849V19.0546V19.0239V18.9931V18.962V18.9307V18.8991V18.8673V18.8353V18.8031V18.7706V18.7379V18.705V18.6719V18.6386V18.605V18.5713V18.5373V18.5031V18.4687V18.434V18.3992V18.3642V18.3289V18.2935V18.2578V18.222V18.1859V18.1496V18.1132V18.0765V18.0397V18.0026V17.9654V17.928V17.8904V17.8525V17.8145V17.7764V17.738V17.6994V17.6607V17.6218V17.5827V17.5434V17.504V17.4644V17.4246V17.3846V17.3445V17.3041V17.2637V17.223V17.1822V17.1412V17.1001V17.0588V17.0173V16.9757V16.9339V16.892V16.8499V16.8076V16.7653V16.7227V16.68V16.6372V16.5942V16.551V16.5077V16.4643V16.4207V16.377V16.3332V16.2892V16.2451V16.2008V16.1564V16.1119V16.0673V16.0225V15.9776V15.9325V15.8874V15.8421V15.7967V15.7511V15.7055V15.6597V15.6138V15.5678V15.5217V15.4755V15.4292V15.3827V15.3361V15.2895V15.2427V15.1958V15.1488V15.1018V15.0546V15.0073V14.9599V14.9124V14.8648V14.8172V14.7694V14.7215V14.6736V14.6256V14.5774V14.5292V14.4809V14.4326V14.3841V14.3356V14.2869V14.2382V14.1895V14.1406V14.0917V14.0427V13.9936V13.9445V13.8953V13.846V13.7967V13.7473V13.6978V13.6483V13.5987V13.5491V13.4994V13.4496V13.3998V13.3499V13.3V13.25V13.2V13.1499V13.0998V13.0496V12.9994V12.9492V12.8989V12.8486V12.7982V12.7478V12.6973V12.6469V12.5963V12.5458V12.4952V12.4446V12.394V12.3433V12.2927V12.2419V12.1912V12.1405V12.0897V12.0389V11.9881V11.9373V11.8864V11.8356V11.7847V11.7339V11.683V11.6321V11.5812V11.5303V11.4794V11.4285V11.3776V11.3267V11.2758V11.2249V11.174V11.1231V11.0722V11.0213V10.9705V10.9196V10.8688V10.8179V10.7671V10.7163V10.6656V10.6148V10.5641V10.5134V10.4627V10.412V10.3614V10.3107V10.2602V10.2096V10.1591V10.1086V10.0581V10.0077V9.95734V9.907V9.8567V9.80643V9.75621V9.70604V9.65591V9.60582V9.55578V9.5058V9.45586V9.40597V9.35614V9.30636V9.25664V9.20698V9.15737V9.10783V9.05834V9.00892V8.95957V8.91027V8.86105V8.81189V8.7628V8.71379V8.66484V8.61597V8.56717V8.51845V8.46981V8.42125V8.37277V8.32436V8.27605V8.22781V8.17966V8.1316V8.08363V8.03575V7.98795V7.94025V7.89265V7.84514V7.79772V7.75041V7.70319V7.65607V7.60906V7.56215V7.51534V7.46864V7.42205V7.37557V7.32919V7.28293V7.23678V7.19074V7.14482V7.09902V7.05333V7.00777V6.96232V6.917V6.8718V6.82672V6.78178V6.73696V6.69227V6.6477V6.60327V6.55898V6.51482V6.47079V6.4269V6.38315V6.33954V6.29607V6.25274V6.20956V6.16652V6.12363V6.08089V6.03829V5.99585V5.95356V5.91142V5.86944V5.82761V5.78594V5.74443V5.70308V5.66189V5.62086V5.58V5.53931V5.49878V5.45841V5.41822V5.3782V5.33835V5.29868V5.25918V5.21985V5.18071V5.14174V5.10295V5.06435V5.02592V4.98769V4.94964V4.91177V4.8741V4.83661V4.79931V4.76221V4.7253V4.68859V4.65208V4.61576V4.57964V4.54372V4.508V4.47249V4.43718V4.40208V4.36719V4.3325V4.29803V4.26376V4.22971V4.19588V4.16225V4.12885V4.09566V4.0627V4.02995V3.99743V3.96513V3.93306V3.90121V3.86959V3.8382V3.80704V3.77611V3.74541V3.71495V3.68473V3.65474V3.62499V3.59548V3.56622V3.53719V3.50841V3.47987V3.45158V3.42354V3.39575V3.36821V3.34092V3.31389V3.28711V3.26058V3.23432V3.20831V3.18256V3.15707V3.13185V3.10689V3.0822V3.05777V3.03362V3.00973V2.98611V2.96277V2.9397V2.9169V2.89438V2.87214V2.85018V2.8285V2.8071V2.78598V2.76515V2.7446V2.72434V2.70437V2.68469V2.6653V2.64621V2.62741V2.6089V2.59069V2.57278V2.55517V2.53786V2.52085V2.50414V2.48774V2.47165V2.45586V2.44038V2.42521V2.41036V2.39581V2.38159V2.36767V2.35408V2.3408V2.32784V2.3152V2.30289V2.2909V2.27924V2.2679V2.25689V2.2462V2.23585V2.22583V2.21615V2.2068V2.19778V2.18911V2.18077V2.17277V2.16511V2.1578C0.5 1.84944 0.569605 1.67058 0.636707 1.57243Z" fill="white" stroke="#21252A"/>
</g>
<defs>
<clipPath id="clip0_3_717">
<rect width="19" height="21" fill="white" transform="translate(0 0.90625)"/>
</clipPath>
</defs>
</svg>
