<svg width="18" height="23" viewBox="0 0 18 23" fill="none" xmlns="http://www.w3.org/2000/svg">
<g id="Group 427319733">
<path id="Fill-1" fill-rule="evenodd" clip-rule="evenodd" d="M15.0343 12.11C15.0556 10.3859 15.9599 8.79382 17.428 7.89161C16.4973 6.56269 14.9947 5.74989 13.3731 5.69909C11.6673 5.52027 10.0132 6.72017 9.14353 6.72017C8.25757 6.72017 6.9195 5.71737 5.4778 5.74684C3.58093 5.8078 1.85576 6.86037 0.933229 8.51849C-1.03171 11.9201 0.433357 16.9198 2.31601 19.6691C3.25784 21.0173 4.35817 22.521 5.79885 22.4672C7.20805 22.4092 7.73433 21.569 9.43512 21.569C11.1207 21.569 11.6144 22.4672 13.0836 22.4336C14.5954 22.4092 15.5484 21.0803 16.4577 19.7209C17.1334 18.7618 17.6546 17.7021 18 16.5794C16.2037 15.8195 15.0363 14.0598 15.0343 12.11Z" fill="#EFEDFD"/>
<path id="Fill-3" fill-rule="evenodd" clip-rule="evenodd" d="M12.2586 3.89079C13.0836 2.90121 13.4889 1.62816 13.3914 0.343933C12.1316 0.477029 10.9672 1.0785 10.1321 2.03049C9.30709 2.96928 8.88951 4.19864 8.96978 5.44527C10.2469 5.45848 11.459 4.88545 12.2586 3.89079Z" fill="#EFEDFD"/>
</g>
</svg>
